<svg viewBox="0 0 32 32" fill="none" xmlns="http://www.w3.org/2000/svg">
  <defs>
    <linearGradient id="faviconGradient" x1="0%" y1="0%" x2="100%" y2="100%">
      <stop offset="0%" stop-color="#3B82F6" />
      <stop offset="100%" stop-color="#8B5CF6" />
    </linearGradient>
  </defs>
  <circle cx="16" cy="16" r="15" fill="url(#faviconGradient)" />
  <path d="M9 11C9 10 10 9 11 9H15C15 9 16 9 16 10V22C16 22 15 22 14 22H11C10 22 9 21 9 20V11Z" fill="white" />
  <path d="M23 11C23 10 22 9 21 9H17C17 9 16 9 16 10V22C16 22 17 22 18 22H21C22 22 23 21 23 20V11Z" fill="white" />
  <circle cx="16" cy="6" r="1.5" fill="#FCD34D" />
</svg>
